<svg width="128" height="55" viewBox="0 0 128 55" fill="none" xmlns="http://www.w3.org/2000/svg">
<path d="M53.9974 0.502258H0V54.4987H53.9974V0.502258Z" fill="#00008F"/>
<path d="M33.5199 27.168L54.0928 0.501282H51.053L30.4132 27.168H33.5199Z" fill="#FF1721"/>
<path d="M41.333 39.0682C42.2757 41.7007 44.2183 48.5527 44.9911 49.0994H39.8827C39.867 48.4931 39.7864 47.8903 39.6423 47.3012C39.4228 46.5182 37.5775 40.594 37.5775 40.594H29.4846L28.2099 42.396C28.2099 42.396 29.7365 47.1773 29.8357 47.4116C29.9998 47.8345 30.7307 49.0994 30.7307 49.0994H25.8417C25.8417 49.0994 25.7158 48.3698 25.6681 48.065C25.6299 47.8193 25.2043 46.4744 25.2043 46.4744C25.2043 46.4744 24.0976 47.686 23.796 48.2479C23.4945 48.8098 23.3552 49.0994 23.3552 49.0994H19.5387C19.5387 49.0994 19.4109 48.3698 19.3651 48.065C19.3269 47.8193 18.8594 46.3659 18.8594 46.3659C18.8594 46.3659 17.7888 47.6631 17.4835 48.225C17.1782 48.787 17.0503 49.0994 17.0503 49.0994H13.2605C13.2605 49.0994 14.3292 48.0841 14.7032 47.6479C15.3329 46.9068 17.6801 43.838 17.6801 43.838L16.7393 40.5864H8.69977C8.69977 40.5864 4.11994 46.6002 3.92911 46.7849C3.73829 46.9697 2.4025 48.8803 2.3796 49.0918H0V47.5774C0.0298317 47.5504 0.0610417 47.525 0.0935049 47.5012C0.167927 47.4478 3.57036 43.2323 6.69419 39.0758C9.50315 35.4565 12.1385 31.9248 12.3694 31.5895C12.9285 30.7704 13.7395 29.0236 13.7395 29.0236H17.8919C17.8919 29.0236 18.0216 30.6371 18.1419 31.0295C18.2506 31.3743 20.7829 39.6701 20.8421 39.7596L22.2427 37.9709L19.8459 30.6085C19.8459 30.6085 19.2849 29.2236 19.1017 29.016H23.9583C23.9411 29.461 23.9945 29.9059 24.1166 30.3342C24.3075 30.9418 25.3551 34.6907 25.3551 34.6907C25.3551 34.6907 28.6659 30.5475 28.8587 30.2485C29.0943 29.8798 29.2365 29.4594 29.2728 29.0236H33.3183C33.3183 29.0236 32.5779 29.5646 31.2803 31.2028L26.5707 37.1747C26.5707 37.1747 26.9523 38.4434 27.126 39.0796C27.1756 39.2701 27.2099 39.3825 27.2099 39.3958C27.2099 39.4091 27.3034 39.2872 27.4656 39.0796C28.5686 37.6852 33.5721 31.1209 33.885 30.5609C34.1312 30.1056 34.4919 29.5894 34.7037 29.0369H38.65C38.65 29.0369 38.7416 30.2142 38.8618 30.5399L41.333 39.0682ZM35.3258 32.8544C34.7533 34.1002 31.3356 38.2453 31.3356 38.2453H36.7379C36.7379 38.2453 35.6903 35.026 35.5071 34.3002C35.4141 33.8364 35.3789 33.363 35.4021 32.8906C35.4021 32.8334 35.3887 32.7172 35.3258 32.8544ZM14.5696 32.8544C13.9971 34.1002 10.5775 38.2453 10.5775 38.2453H15.9798C15.9798 38.2453 14.9341 35.026 14.7509 34.3002C14.6579 33.8364 14.6227 33.363 14.6459 32.8906C14.6459 32.8334 14.6326 32.7172 14.5696 32.8544ZM22.7026 45.4267L24.1891 43.3885C24.0518 43.2418 23.2159 40.7064 23.2159 40.7064L21.7771 42.5675L22.7026 45.4267Z" fill="white"/>
<path d="M63.4189 48.5187L64.1269 48.372C64.7528 48.2272 64.9398 48.1224 64.9398 46.848V36.9325C64.9398 35.6638 64.749 35.5609 64.1269 35.4085L63.4189 35.2637V34.6808H70.2317V35.2637L69.5447 35.4085C68.8768 35.599 68.7317 35.6581 68.7317 36.9325V41.2587H73.3996V36.9325C73.3996 35.6638 73.2526 35.599 72.5866 35.4085L71.8977 35.2637V34.6808H78.7124V35.2637L78.0235 35.4085C77.3785 35.5552 77.1915 35.6581 77.1915 36.9325V46.8537C77.1915 48.1224 77.3823 48.2063 78.0235 48.3777L78.7124 48.5244V49.1073H71.8977V48.5244L72.5866 48.3777C73.2526 48.1872 73.3996 48.1282 73.3996 46.8537V42.2169H68.7298V46.8537C68.7298 48.1224 68.8749 48.1872 69.5428 48.3777L70.2298 48.5244V49.1073H63.417L63.4189 48.5187Z" fill="#00008F"/>
<path d="M79.4599 43.6499C79.4599 40.0304 82.1488 38.013 84.8988 38.013C87.7747 38.013 89.5666 39.4494 89.6296 43.2136H82.7595C82.8225 46.6236 84.1144 47.5608 86.2613 47.5608C87.3327 47.5587 88.3861 47.2868 89.3242 46.7703V47.456C88.7545 48.0537 88.0692 48.5296 87.3098 48.8551C86.5505 49.1806 85.7328 49.3488 84.9064 49.3496C81.2729 49.3496 79.4599 47.1855 79.4599 43.6499ZM82.7519 42.4231L86.3148 42.2326C86.3148 39.7142 85.9827 38.8036 84.7327 38.8036C83.6698 38.8036 82.8358 39.8018 82.7519 42.4231Z" fill="#00008F"/>
<path d="M90.3766 46.6042C90.3766 44.7754 91.7735 43.9639 94.1265 43.4019L96.2257 42.8819V41.0721C96.2257 39.3462 95.8917 38.8261 94.7467 38.8261C94.1208 38.8261 93.9128 38.9919 93.8708 39.5748C93.7677 40.8854 93.3288 41.4055 92.2468 41.4055C91.3289 41.4055 90.8289 40.9273 90.8289 40.1158C90.8289 38.7823 92.5464 38.0203 95.4337 38.0203C98.0387 38.0203 99.5596 38.8319 99.5596 40.8778V46.6252C99.5596 47.3872 99.6436 47.7072 100.039 47.9149C100.348 48.0466 100.681 48.1172 101.018 48.1225V48.6216C100.623 48.934 99.7886 49.3512 98.5806 49.3512C97.3726 49.3512 96.6417 48.8921 96.4127 48.0825H96.3097C95.7887 48.7473 94.8517 49.3512 93.4968 49.3512C91.5445 49.3512 90.3766 48.353 90.3766 46.6042ZM96.2314 47.271V43.943L95.2773 44.0268C94.2143 44.1087 93.6513 44.5868 93.6513 46.0842C93.6513 47.4367 94.2563 47.873 95.0692 47.873C95.6475 47.8825 96.0444 47.6234 96.2314 47.271Z" fill="#00008F"/>
<path d="M101.336 48.5399L101.878 48.3932C102.607 48.2027 102.691 48.1036 102.691 47.2083V36.0602C102.691 35.0411 102.607 34.9572 102.002 34.6448L101.238 34.2638V33.7857L105.864 33.3685L106.093 33.5361C106.093 33.5361 106.009 34.5762 106.009 35.9688V47.2083C106.009 48.1436 106.093 48.2065 106.822 48.3932L107.364 48.5399V49.1114H101.336V48.5399Z" fill="#00008F"/>
<path d="M108.856 46.4806V39.533H107.543V39.0339C108.342 38.7431 109.067 38.2789 109.666 37.6748C110.264 37.0707 110.721 36.3416 111.003 35.5402H112.19V38.3062H114.961L114.69 39.533H112.19V46.2729C112.19 47.313 112.503 47.7283 113.545 47.7283C114.05 47.7131 114.552 47.6493 115.045 47.5378V48.1093C114.148 48.9286 112.968 49.369 111.753 49.3381C109.877 49.3514 108.856 48.5189 108.856 46.4806Z" fill="#00008F"/>
<path d="M115.377 48.5399L115.919 48.3932C116.606 48.2027 116.682 48.1036 116.682 47.2083V36.0602C116.682 35.0411 116.619 34.9363 116.037 34.6448L115.274 34.2638V33.7857L119.854 33.3685L120.083 33.5361C120.083 33.5361 119.999 34.5762 119.999 35.9688V37.3842C119.999 38.5272 119.936 39.4435 119.936 39.4435H120.041C121.167 38.6815 122.457 38.0071 123.978 38.0071C125.751 38.0071 126.709 38.9234 126.709 40.7941V47.2006C126.709 48.115 126.791 48.2198 127.459 48.3856L128.001 48.5322V49.1037H122.19V48.5322L122.69 48.4065C123.316 48.2408 123.379 48.1779 123.379 47.2006V41.6133C123.379 40.3446 122.921 39.9502 121.94 39.9502C121.286 39.97 120.637 40.06 120.003 40.2188V47.2083C120.003 48.2065 120.066 48.2484 120.69 48.4141L121.19 48.5399V49.1114H115.377V48.5399Z" fill="#00008F"/>
</svg>
